:version 1.10
:name ASF
:units
  mass 1
  length 1
  angle deg
:documentation
  ASF file generated by Kaydara
:root
  axis xyz
  order  tx ty tz rx ry rz
  position 0 0 0
  orientation 0 0 0
:bonedata
  begin
    id 1
    name RightUpLegDummy
    direction -1 2.30186e-007 8.31532e-007
    length 4.46685
    axis 0 0 0 xyz
  end
  begin
    id 2
    name RightUpLeg
    direction -2.30187e-007 -1 1.24343e-010
    length 16.4045
    axis -3.49089 -0.000906625 0.000286804 xyz
    dof rx ry rz
  end
  begin
    id 3
    name RightLeg
    direction -2.30181e-007 -1 -4.17157e-009
    length 17.5097
    axis 3.68512 0.0193738 -0.131023 xyz
    dof rx ry rz
  end
  begin
    id 4
    name RightFoot
    direction 8.31421e-007 -4.51202e-011 1
    length 6.49508
    axis 4.81691e-005 -0.120479 -0.188788 xyz
    dof rx ry rz
  end
  begin
    id 5
    name RightToes
    direction 0.00124746 -0.014064 0.9999
    length 3.85082
    axis 0.000481921 0.542163 -0.142578 xyz
    dof rx ry rz
  end
  begin
    id 6
    name SpineDummy
    direction 0.0717043 0.9409 -0.331007
    length 10.0032
    axis 0 0 0 xyz
  end
  begin
    id 7
    name Spine
    direction 2.30186e-007 1 4.58806e-011
    length 9.84055
    axis -0.001389 0.000121418 2.40972e-006 xyz
    dof rx ry rz
  end
  begin
    id 8
    name Spine1
    direction 0 0 0
    length 0
    axis -0.001389 0.000121451 1.30017e-006 xyz
    dof rx ry rz
  end
  begin
    id 9
    name HEadDummy
    direction -0.00347485 0.950688 -0.310128
    length 8.00997
    axis -0.001389 0.000121451 1.30017e-006 xyz
  end
  begin
    id 10
    name HEad
    direction -0.0222688 0.980941 0.193023
    length 5.12695
    axis -0.001389 0.000121451 1.30017e-006 xyz
    dof rx ry rz
  end
  begin
    id 11
    name LeftShoulder1Dummy
    direction 0.988871 0.146793 -0.0242004
    length 3.5792
    axis -0.001389 0.000121451 1.30017e-006 xyz
  end
  begin
    id 12
    name LeftShoulder1
    direction 0.993832 0.108932 0.020779
    length 4.16823
    axis -0.001389 0.000121451 1.30017e-006 xyz
    dof rx ry rz
  end
  begin
    id 13
    name LeftArm
    direction 1 3.44807e-006 -8.31404e-007
    length 9.91437
    axis -23.1894 0.134784 0.967509 xyz
    dof rx ry rz
  end
  begin
    id 14
    name LeftForeArm
    direction 1 3.44842e-006 -8.31581e-007
    length 9.08575
    axis -9.91835 -0.06569 -0.177793 xyz
    dof rx ry rz
  end
  begin
    id 15
    name LeftHand
    direction 0.992938 -0.0411636 0.11126
    length 5.32135
    axis -0.00960232 -0.00340091 0.185173 xyz
    dof rx ry rz
  end
  begin
    id 16
    name RightShoulderDummy
    direction -0.988871 0.146793 -0.0241962
    length 3.5792
    axis -0.001389 0.000121451 1.30017e-006 xyz
  end
  begin
    id 17
    name RightShoulder
    direction -0.993832 0.108933 0.0207785
    length 4.16823
    axis 0.215806 0.000203643 -0.0068026 xyz
    dof rx ry rz
  end
  begin
    id 18
    name RightArm
    direction -1 3.90912e-006 8.31284e-007
    length 9.91437
    axis -23.2009 -0.134239 -0.964101 xyz
    dof rx ry rz
  end
  begin
    id 19
    name RightForeArm
    direction -1 3.90882e-006 8.31502e-007
    length 9.08575
    axis -9.92322 0.0658061 0.178867 xyz
    dof rx ry rz
  end
  begin
    id 20
    name RightHand
    direction -0.992843 -0.0414603 0.112003
    length 5.28593
    axis -0.00960638 0.00330671 -0.185228 xyz
    dof rx ry rz
  end
  begin
    id 21
    name LeftUpLegDummy
    direction 1 -2.30186e-007 -8.31532e-007
    length 4.46685
    axis 0 0 0 xyz
  end
  begin
    id 22
    name LeftUpLeg
    direction -2.30187e-007 -1 6.00931e-010
    length 16.4045
    axis -3.48766 0.00143442 -0.000524262 xyz
    dof rx ry rz
  end
  begin
    id 23
    name LeftLeg
    direction -2.30187e-007 -1 1.6669e-009
    length 17.5097
    axis 3.68178 -0.00654042 -0.000285133 xyz
    dof rx ry rz
  end
  begin
    id 24
    name LeftFoot
    direction 8.31532e-007 -4.54478e-011 1
    length 6.49508
    axis 1.87233e-006 4.66016e-005 -8.6538e-006 xyz
    dof rx ry rz
  end
  begin
    id 25
    name LeftToes
    direction 0.00818058 -0.00485161 0.999955
    length 3.85048
    axis 1.06247e-005 4.65869e-005 -8.65513e-006 xyz
    dof rx ry rz
  end
:hierarchy
  begin
    root RightUpLegDummy SpineDummy LeftUpLegDummy
    RightUpLegDummy RightUpLeg
    RightUpLeg RightLeg
    RightLeg RightFoot
    RightFoot RightToes
    SpineDummy Spine
    Spine Spine1
    Spine1 HEadDummy LeftShoulder1Dummy RightShoulderDummy
    HEadDummy HEad
    LeftShoulder1Dummy LeftShoulder1
    LeftShoulder1 LeftArm
    LeftArm LeftForeArm
    LeftForeArm LeftHand
    RightShoulderDummy RightShoulder
    RightShoulder RightArm
    RightArm RightForeArm
    RightForeArm RightHand
    LeftUpLegDummy LeftUpLeg
    LeftUpLeg LeftLeg
    LeftLeg LeftFoot
    LeftFoot LeftToes
  end

:SAMPLES-PER-SECOND 30
:FULLY-SPECIFIED
:DEGREES
81
root  51.9977 30.1069 27.9376 -170.988 14.6004 -165.781
RightUpLeg  -21.284 -7.12526 8.22291
RightLeg  45.8529 1.54929 1.36798
RightFoot  -16.0714 -0.104969 -0.36599
RightToes  -44.5853 -0.25611 -0.339532
Spine  8.51287 2.32413 3.20412
Spine1  16.6573 6.54307 1.50247
HEad  30.7691 15.0781 -2.09621
LeftShoulder1  0 -2.42657e-020 -4.95415e-022
LeftArm  -10.0537 9.46001 -90.2958
LeftForeArm  34.7391 -43.3212 -9.57492
LeftHand  0.0201758 -7.26289 -0.688509
RightShoulder  0 2.42657e-020 1.07489e-018
RightArm  -4.39343 19.801 83.8751
RightForeArm  66.7883 31.2156 6.06551
RightHand  -6.5633 25.6397 -27.9214
LeftUpLeg  -35.2752 1.14355 4.36619
LeftLeg  93.3179 0.066404 9.27924
LeftFoot  -13.0254 -0.169766 -1.48702
LeftToes  4.65077 9.37529e-007 1.1992e-007
82
root  52.2456 30.6881 26.6222 -170.965 12.6038 -168.002
RightUpLeg  -16.7434 -7.94745 6.17226
RightLeg  40.3992 0.622192 0.440658
RightFoot  -15.1124 -0.0422325 0.059177
RightToes  -45.655 -0.26516 -0.344788
Spine  9.33439 5.44361 2.37614
Spine1  17.9363 14.0592 -1.07665
HEad  33.2706 8.12977 0.851376
LeftShoulder1  0 -2.42657e-020 -4.95415e-022
LeftArm  -8.19 7.34885 -91.4609
LeftForeArm  35.5527 -44.7003 -10.0542
LeftHand  -0.0651073 -7.53072 0.619868
RightShoulder  0 2.42657e-020 1.07489e-018
RightArm  -18.2493 25.0635 84.3969
RightForeArm  67.2058 19.5386 3.51975
RightHand  -1.62814 24.6525 -7.07267
LeftUpLeg  -40.3717 2.68016 2.38322
LeftLeg  86.5025 1.08342 8.48287
LeftFoot  -14.8431 -0.18335 -1.40751
LeftToes  5.59086 9.37529e-007 1.1992e-007
83
root  52.3567 31.2889 25.2023 -170.853 10.4571 -171.066
RightUpLeg  -12.4898 -8.17055 3.12717
RightLeg  35.4571 -0.744709 -0.476577
RightFoot  -13.0247 0.0111201 0.474988
RightToes  -46.8633 -0.275498 -0.35052
Spine  9.49003 7.77379 1.18027
Spine1  17.4282 19.5995 -3.25425
HEad  36.0519 -0.135971 4.64236
LeftShoulder1  0 -2.42657e-020 -4.95415e-022
LeftArm  -4.59565 7.25412 -90.7372
LeftForeArm  35.2305 -47.6301 -11.1583
LeftHand  -0.0614449 -7.66039 0.548306
RightShoulder  0 2.42657e-020 1.07489e-018
RightArm  -47.7873 27.7771 81.0235
RightForeArm  76.5978 5.39411 0.872449
RightHand  0.898556 20.9881 5.21976
LeftUpLeg  -43.2793 2.92323 -0.632843
LeftLeg  75.4095 2.00299 6.02175
LeftFoot  -15.3337 -0.127999 -0.950834
LeftToes  5.15677 9.37529e-007 1.1992e-007
84
root  52.348 31.9326 23.723 -169.934 7.69354 -173.765
RightUpLeg  -9.2434 -8.09128 0.611912
RightLeg  31.3269 -2.53634 -1.33764
RightFoot  -8.56516 0.0243633 0.70295
RightToes  -50.3309 -0.305811 -0.365745
Spine  8.89782 8.55724 0.0658693
Spine1  15.7593 20.9312 -4.073
HEad  36.4857 -8.15879 8.10695
LeftShoulder1  0 -2.42657e-020 -4.95415e-022
LeftArm  -0.435157 8.41774 -88.1662
LeftForeArm  35.5894 -52.0796 -13.1082
LeftHand  -0.0822322 -7.96713 0.811553
RightShoulder  0 2.42657e-020 1.07489e-018
RightArm  -52.6989 22.3635 76.8323
RightForeArm  61.1061 2.18606 0.347261
RightHand  0.345064 16.1219 2.80721
LeftUpLeg  -44.2529 2.24893 -3.68345
LeftLeg  60.7859 4.56081 6.99773
LeftFoot  -16.5555 -0.289811 -1.99182
LeftToes  6.5546 9.37529e-007 1.1992e-007
85
root  52.3334 32.3994 22.0436 -169.097 3.59773 -175.627
RightUpLeg  -6.13955 -9.8338 -1.1907
RightLeg  29.1814 -3.69196 -1.76646
RightFoot  -3.23138 0.00444992 0.535426
RightToes  -55.9833 -0.357027 -0.38655
Spine  8.58081 8.05175 -0.408107
Spine1  15.099 19.4454 -4.05501
HEad  34.7586 -13.5199 10.3855
LeftShoulder1  0 -2.42657e-020 -4.95415e-022
LeftArm  1.59624 9.47787 -85.7054
LeftForeArm  37.3119 -57.3707 -16.037
LeftHand  -0.153639 -8.12062 1.79571
RightShoulder  0 2.42657e-020 1.07489e-018
RightArm  -63.9869 17.574 75.5429
RightForeArm  61.3151 3.31508 0.544958
RightHand  -0.265573 17.5146 -1.35435
LeftUpLeg  -42.7358 1.23092 -6.06804
LeftLeg  46.239 6.84946 6.24261
LeftFoot  -16.3136 -0.352605 -2.45968
LeftToes  6.05184 9.37529e-007 1.1992e-007
86
root  52.3664 32.5922 20.2757 -168.767 0.225266 -176.263
RightUpLeg  -4.22722 -8.18172 -1.2345
RightLeg  30.5694 -5.23635 -2.65763
RightFoot  1.0604 0.00185067 0.177445
RightToes  -59.1252 -0.386307 -0.395901
Spine  8.42983 7.20018 -0.363839
Spine1  15.0051 17.3031 -3.39148
HEad  33.465 -16.2436 11.4035
LeftShoulder1  0 -2.42657e-020 -4.95415e-022
LeftArm  1.18135 10.2028 -84.6959
LeftForeArm  37.7154 -61.2666 -18.8396
LeftHand  -0.15332 -7.79991 1.88043
RightShoulder  0 2.42657e-020 1.07489e-018
RightArm  -63.6242 13.1943 75.9174
RightForeArm  56.1517 9.42352 1.64134
RightHand  0.144316 22.1267 1.1084
LeftUpLeg  -40.1373 2.19688 -7.69433
LeftLeg  36.7779 5.61339 3.64326
LeftFoot  -15.8685 -0.248857 -1.78544
LeftToes  3.57834 9.37529e-007 1.1992e-007
87
root  52.299 32.4845 18.4376 -168.884 -3.57385 -176.957
RightUpLeg  -4.44269 -7.39824 -1.64214
RightLeg  37.1374 -4.56935 -3.02988
RightFoot  5.28608 0.027162 -0.210817
RightToes  -61.7256 -0.410898 -0.402417
Spine  8.12185 5.554 -0.315629
Spine1  14.6287 13.4674 -2.86907
HEad  33.0754 -16.4563 10.8719
LeftShoulder1  0 -2.42657e-020 -4.95415e-022
LeftArm  0.0878348 10.9037 -83.8663
LeftForeArm  36.7427 -64.5554 -21.8643
LeftHand  -0.112333 -6.71481 1.54629
RightShoulder  0 2.42657e-020 1.07489e-018
RightArm  -50.2971 6.81315 76.3506
RightForeArm  38.3097 19.5481 3.57602
RightHand  0.504093 23.3044 2.81485
LeftUpLeg  -36.9497 0.784672 -8.47867
LeftLeg  34.708 5.99454 3.58992
LeftFoot  -15.3464 -0.248301 -1.84282
LeftToes  7.76662 9.37529e-007 1.1992e-007
88
root  52.1586 32.0837 16.6679 -169.543 -6.50246 -177.977
RightUpLeg  -7.21158 -5.9631 -3.03259
RightLeg  48.7888 -1.12851 -1.17499
RightFoot  10.0976 0.0340836 -0.00824015
RightToes  -56.7911 -0.364505 -0.389108
Spine  7.7991 3.56744 -0.557875
Spine1  14.2821 8.78461 -2.65964
HEad  32.8137 -14.6697 9.11396
LeftShoulder1  0 -2.42657e-020 -4.95415e-022
LeftArm  -0.598393 10.7001 -82.4763
LeftForeArm  36.5371 -67.5784 -25.4521
LeftHand  -0.0731736 -5.74794 1.08885
RightShoulder  0 2.42657e-020 1.07489e-018
RightArm  -40.9253 1.29297 75.8131
RightForeArm  24.4632 30.6077 5.98476
RightHand  0.33456 22.2461 2.07211
LeftUpLeg  -34.107 -0.610691 -9.46231
LeftLeg  36.6691 6.15796 3.97826
LeftFoot  -17.1379 -0.328919 -2.18262
LeftToes  6.72962 9.37529e-007 1.1992e-007
89
root  52.0246 31.5364 14.9332 -170.933 -10.3139 -178.851
RightUpLeg  -10.6739 -4.24018 -4.04992
RightLeg  61.5263 2.17169 3.35317
RightFoot  15.6994 -0.112979 1.19696
RightToes  -41.5254 -0.230782 -0.323576
Spine  7.79109 1.00569 -0.783404
Spine1  14.5626 2.80695 -2.16182
HEad  31.21 -11.9871 7.42445
LeftShoulder1  0 -2.42657e-020 -4.95415e-022
LeftArm  -1.19119 8.31428 -80.7937
LeftForeArm  38.0415 -69.4893 -28.3095
LeftHand  -0.0401096 -5.68408 0.438513
RightShoulder  0 2.42657e-020 1.07489e-018
RightArm  -35.9945 -2.65474 75.0588
RightForeArm  20.4598 44.3946 9.95561
RightHand  0.00695093 22.2141 0.40553
LeftUpLeg  -32.7867 -1.59195 -10.3609
LeftLeg  41.634 3.34317 2.59859
LeftFoot  -13.8743 -0.121526 -0.998791
LeftToes  11.316 9.37529e-007 1.1992e-007
90
root  51.8384 30.9012 13.109 -171.694 -13.437 -179.914
RightUpLeg  -14.7251 -3.18365 -5.55575
RightLeg  71.5498 2.42932 5.76354
RightFoot  12.4223 -0.109513 1.38371
RightToes  -42.6719 -0.240171 -0.329712
Spine  8.03143 -0.744135 -0.923014
Spine1  14.9643 -0.939529 -2.29032
HEad  30.0389 -9.30307 5.92311
LeftShoulder1  0 -2.42657e-020 -4.95415e-022
LeftArm  -1.60219 3.75563 -80.2505
LeftForeArm  38.0028 -70.1433 -29.4278
LeftHand  -0.0417973 -5.1512 0.559968
RightShoulder  0 2.42657e-020 1.07489e-018
RightArm  -34.0465 -6.4788 73.5093
RightForeArm  27.1833 61.4542 19.0052
RightHand  -0.127249 22.4968 -0.269871
LeftUpLeg  -30.8763 -2.83064 -11.4135
LeftLeg  46.3346 2.30016 2.1109
LeftFoot  -18.9781 -0.171735 -1.02744
LeftToes  13.0564 9.37529e-007 1.1992e-007
91
root  51.6431 30.654 11.3356 -171.864 -16.2285 179.286
RightUpLeg  -19.7151 -2.88951 -6.79663
RightLeg  76.9206 1.40147 4.3582
RightFoot  7.512 -0.0140172 0.591012
RightToes  -40.2721 -0.22066 -0.316654
Spine  8.07693 -2.4851 -0.894856
Spine1  14.9751 -4.52766 -2.367
HEad  29.1564 -6.42776 4.61568
LeftShoulder1  0 -2.42657e-020 -4.95415e-022
LeftArm  -3.19175 -2.07832 -81.4363
LeftForeArm  34.2473 -68.5765 -26.8731
LeftHand  -0.0683272 -4.09711 1.54272
RightShoulder  0 2.42657e-020 1.07489e-018
RightArm  -33.2582 -6.5035 71.5078
RightForeArm  36.7596 71.4122 31.874
RightHand  -0.0210173 22.8159 0.265923
LeftUpLeg  -27.6592 -5.47577 -11.8504
LeftLeg  47.4725 2.38728 2.27986
LeftFoot  -22.2581 -0.2532 -1.28707
LeftToes  13.0465 9.37529e-007 1.1992e-007
